<svg xmlns="http://www.w3.org/2000/svg" xmlns:xlink="http://www.w3.org/1999/xlink">
	<symbol id="beer" viewBox="0 0 25 30">
		<path style="fill:var(--beer);"
				d="M14.1,8.9c-0.4,0.1-0.7,0.2-1.1,0.2c-0.2,0-0.4,0-0.6-0.1c-0.4,0.6-1,1.1-1.7,1.4v2.8
				c0,1.3-1.1,2.3-2.4,2.3s-2.4-1-2.4-2.3V9.7C5.5,9.4,5.3,9.1,5.1,8.7C4.6,9,4,9.1,3.4,9.1C3,9.1,2.5,9,2.1,8.9v19.5
				c0,0,0,0.1,0.1,0.1h16.6c0.1,0,0.1,0,0.1-0.1V9.3c-0.6,0.4-1.4,0.6-2.1,0.6C15.7,9.9,14.8,9.6,14.1,8.9z"/>
			
		<path style="fill:var(--mug);"
				d="M22.2,9.8h-1.8V7.8c-0.4,0.6-0.9,1.1-1.5,1.5v19.1c0,0,0,0.1-0.1,0.1H2.2c-0.1,0-0.1,0-0.1-0.1
				V8.9C1.5,8.6,1,8.2,0.6,7.7v20.7c0,0.9,0.7,1.6,1.6,1.6h16.6c0.9,0,1.6-0.7,1.6-1.6v-4.2h1.8c1.6,0,2.8-1.2,2.8-2.7v-9
				C25,11,23.7,9.8,22.2,9.8z M23.5,21.5c0,0.7-0.6,1.2-1.3,1.2h-1.8V11.3h1.8c0.7,0,1.3,0.5,1.3,1.2V21.5z"/>
			
		<path style="fill:var(--foam);"
				d="M16.8,1.6c-0.1,0-0.2,0-0.3,0c-0.7-1-1.8-1.7-3.2-1.7c-1.2,0-2.2,0.5-2.9,1.4
				C9.7,0.6,8.6,0.1,7.5,0.1c-1.6,0-3,1-3.5,2.4c-0.2,0-0.4-0.1-0.5-0.1C1.5,2.4,0,3.9,0,5.8s1.5,3.4,3.4,3.4C4,9.1,4.6,9,5.1,8.7
				c0.2,0.3,0.5,0.7,0.8,0.9v3.6c0,1.3,1.1,2.3,2.4,2.3s2.4-1,2.4-2.3v-2.8c0.7-0.3,1.3-0.8,1.7-1.4c0.2,0,0.4,0.1,0.6,0.1
				c0.4,0,0.8-0.1,1.1-0.2c0.7,0.6,1.7,1,2.7,1c2.3,0,4.2-1.9,4.2-4.1S19.1,1.6,16.8,1.6z"/>

		<path style="fill:var(--foam_outline);"
				d="M13.3,1.5c0.8,0,1.5,0.4,1.9,1l0.5,0.7l0.9-0.1c0.1,0,0.1,0,0.2,0l0,0c1.5,0,2.7,1.2,2.7,2.6
				s-1.2,2.6-2.7,2.6c-0.8,0-1.4-0.4-1.8-0.7l-0.7-0.5l-0.8,0.3c-0.2,0.1-0.4,0.1-0.6,0.1c-0.1,0-0.2,0-0.4,0l-0.9-0.2l-0.6,0.7
				c-0.3,0.4-0.7,0.7-1.1,0.9L9.1,9.5v1v2.8c0,0.5-0.4,0.8-0.9,0.8s-0.9-0.4-0.9-0.8V9.7V9L6.8,8.5C6.6,8.4,6.5,8.2,6.3,7.9L5.6,6.7
				L4.4,7.4C4,7.6,3.7,7.6,3.4,7.6c-1.1,0-1.9-0.8-1.9-1.9s0.9-1.9,1.9-1.9c0.1,0,0.2,0,0.3,0l1.2,0.2L5.4,3c0.3-0.9,1.2-1.4,2.1-1.4
				c0.7,0,1.3,0.3,1.7,0.8l1.2,1.4l1.1-1.4C12,1.8,12.6,1.5,13.3,1.5 M13.3,0c-1.2,0-2.2,0.5-2.9,1.4C9.7,0.6,8.6,0.1,7.5,0.1
				c-1.6,0-3,1-3.5,2.4c-0.2,0-0.4-0.1-0.5-0.1C1.5,2.4,0,3.9,0,5.8s1.5,3.4,3.4,3.4C4,9.1,4.6,9,5.1,8.7c0.2,0.3,0.5,0.7,0.8,0.9v3.6
				c0,1.3,1.1,2.3,2.4,2.3s2.4-1,2.4-2.3v-2.8c0.7-0.3,1.3-0.8,1.7-1.4c0.2,0,0.4,0.1,0.6,0.1c0.4,0,0.8-0.1,1.1-0.2
				c0.7,0.6,1.7,1,2.7,1c2.3,0,4.2-1.9,4.2-4.1s-1.9-4.1-4.2-4.1c-0.1,0-0.2,0-0.3,0C15.8,0.7,14.6,0,13.3,0L13.3,0z"/>
	</symbol>
	<symbol id="coffee" viewBox="0 0 25 30">
		<polygon style="fill:var(--coffee);" points="13.3,8.2 19,8.2 19,26.8 6.1,26.8 6,8.5 6.2,8.2 11.8,8.2 "/>
		<path style="fill:var(--press);" d= "M22.1,9.5h-1.6V8.2c0-0.8-0.6-1.5-1.4-1.5h-5.8V5.3h6.4c0-1.2-2.6-2.2-5.9-2.4c0.3-0.3,0.5-0.7,0.5-1.2
		c0-1-0.8-1.7-1.7-1.7c-1,0-1.7,0.8-1.7,1.7c0,0.4,0.2,0.9,0.5,1.2C7.9,3.1,5.3,4.1,5.3,5.3h6.4v1.5H6c0,0-0.1,0-0.1,0H2.1
		c0,1.1,0.9,2.2,2.5,3v18.5c0,0.8,0.6,1.5,1.4,1.5h13c0.8,0,1.4-0.7,1.4-1.5v-6.8h1.6c1.5,0,2.7-1.1,2.7-2.3v-7.3
		C24.7,10.5,23.5,9.5,22.1,9.5z M19,26.8H6.1L6,8.5l0.2-0.3l5.6,0v14.6H8v1.5h9.1v-1.5h-3.8V8.2l5.7,0V26.8z M23.2,19.1
		c0,0.5-0.5,0.8-1.2,0.8h-1.6v-9h1.6c0.6,0,1.2,0.4,1.2,0.8V19.1z"/>			
	</symbol>
	<symbol id="contact" viewBox="0 0 30 30">
		<rect style="fill:var(--gap_001);" x="22" y="4" width="2" height="2"/>

		<rect style="fill:var(--gap_002);" x="4" y="15" width="2" height="2.1"/>

		<path style="fill:var(--fill_001);" d="M8,21h9.7c3,0,3.5,1.2,4.5,2.1c1.1,1,1.8,1.8,1.8,1.8V21h4V8H8V21z"/>

		<rect style="fill:var(--fill_002);" x="2" y="2" width="20" height="13"/>

		<path style="fill:var(--box_001);" d="M7.2,6C6.3,6,6,6.3,6,7.2c0,5,0,15.9,0,15.9s8.1,0,12,0c0.4,0,0.9,0,1.2,0.3c2.2,2.2,4.4,4.3,6.6,6.6H26v-7h4V6
		H7.2z M28,21h-4v3.9c0,0-0.7-0.8-1.8-1.8c-1-0.9-1.5-2.1-4.5-2.1H8V8h20V21z"/>

		<path style="fill:var(--box_002);" d="M2,2c9,0,20,0,20,0v2h2V0C24,0,8,0,0,0v17.1c1.3,0,4,0,4,0V15H2C2,15,2,6,2,2z"/>
	</symbol>
	<symbol id="hamburger" viewBox="0 0 27 20"> 
		<rect height="2" width="27" />
		<rect height="2" width="27" y="9" />
		<rect height="2" width="27" y="18" />
	</symbol>	
	<symbol id="triangle-up" viewBox="0 0 20 13">
		<path d="M20,13L10,0L0,13H20z"/>
	</symbol>
	<symbol id="triangle-down" viewBox="0 0 20 13">
		<path d="M0,0l10,13L20,0H0z"/>
	</symbol>
	<symbol id="phone" viewBox="0 0 30 56">
		<path d="M30,28c0,7.8,0,15.7,0,23.5c0,1.9-1.3,3.5-3,4.1
		c-0.6,0.2-1.3,0.3-2,0.3c-6.8,0-13.7,0-20.5,0c-1.9,0-3.8-1.2-4.3-3.6C0,52,0,51.5,0,51.1C0,35.5,0,20,0,4.4c0-2.1,1.6-3.9,3.6-4.3
		C4.2,0.1,4.8,0,5.4,0c6.7,0,13.4,0,20.2,0c1.9,0,3.8,1.2,4.3,3.6C30,4,30,4.5,30,4.9C30,12.6,30,20.3,30,28z M2.8,28.3
		c0,6.1,0,12.1,0,18.2c0,0.5,0,0.5,0.5,0.5c7.8,0,15.6,0,23.4,0c0.5,0,0.5,0,0.5-0.5c0-12.1,0-24.3,0-36.4c0-0.5,0-0.5-0.4-0.5
		c-7.8,0-15.6,0-23.4,0c-0.5,0-0.5,0-0.5,0.5C2.8,16.1,2.8,22.2,2.8,28.3z M12.6,51c0,1.2,1,2.2,2.2,2.2c1.2,0,2.2-1,2.2-2.2
		c0-1.2-1-2.2-2.2-2.2C13.6,48.8,12.6,49.8,12.6,51z M15,5.1c-0.7,0-1.4,0-2.1,0c-0.4,0-0.7,0.2-0.7,0.5c0,0.3,0.3,0.5,0.6,0.5
		c1.4,0,2.8,0,4.2,0c0.4,0,0.6-0.2,0.6-0.5c0-0.3-0.2-0.5-0.6-0.5C16.4,5.1,15.7,5.1,15,5.1z"/>
	</symbol>
	<symbol id="mail" viewBox="0 0 35 26">
		<path d="M35,26c-11.7,0-23.3,0-35,0C0,17.3,0,8.7,0,0c11.7,0,23.3,0,35,0
		C35,8.7,35,17.3,35,26z M31.6,7.5c-0.2,0.1-0.3,0.2-0.4,0.3c-4.5,3.7-8.9,7.4-13.4,11.1c-0.3,0.3-0.5,0.2-0.8,0
		c-4.4-3.6-8.8-7.3-13.1-10.9C3.8,7.8,3.6,7.7,3.4,7.5c0,5.1,0,10.1,0,15c9.4,0,18.8,0,28.2,0C31.6,17.6,31.6,12.6,31.6,7.5z
		M17.5,14.5c4.4-3.7,8.9-7.3,13.3-11c-8.9,0-17.7,0-26.7,0C8.6,7.1,13,10.8,17.5,14.5z"/>
	</symbol>
	<symbol id="facebook" viewBox="0 0 30 30">
		<path d="M22,5c-1,0-2.6,0-3.3,0C18,5,17,6,17,6.5C17,7,17,10,17,10s4.6,0,5.2,0c-0.2,3-0.6,5-0.6,5H17v15h-6V15H8v-5h3 c0,0,0-3.4,0-4.2S10.8,0,17.5,0C18.4,0,20,0,22,0C22,2.1,22,5,22,5z"/>
	</symbol>
	<symbol id="linkedin" viewBox="0 0 30 30">
		<path d="M29.8,15.9c-0.1-0.9-0.4-1.7-0.8-2.5c-0.5-1-1.1-1.9-2-2.6c-1.1-0.9-2.3-1.3-3.7-1.4c-0.5,0-1-0.1-1.5,0 c-0.6,0-1.1,0.2-1.6,0.3c-1.2,0.4-2.1,1.1-2.9,2.1c-0.2,0.2-0.3,0.5-0.5,0.7c0,0,0,0.1-0.1,0.1c0-0.1,0-0.2,0-0.3 c0-0.7,0-1.5,0-2.2c0-0.1,0-0.2,0-0.3h-6.1c-0.1,0-0.1,0-0.2,0c0,0-0.1,0-0.1,0c0,0.2,0,0.4,0,0.6c0,1.3,0,2.6,0,3.9 c0,3.3,0,6.6,0,10c0,1.2,0,2.5,0,3.7c0,0.6,0,1.2,0,1.8c0,0.1,0,0.2,0,0.3c0.1,0,0.2,0,0.3,0c1.9,0,3.9,0,5.8,0 c0.1,0,0.1,0,0.2,0c0,0,0.1,0,0.1,0c0-0.1,0-0.2,0-0.3c0-3.6,0-7.3,0-10.9c0-0.2,0-0.5,0-0.7c0-0.3,0.1-0.7,0.2-1 c0.1-0.3,0.3-0.7,0.5-1c0.4-0.6,1-1,1.7-1.3c0.5-0.2,0.9-0.2,1.4-0.2c1.1,0.1,1.9,0.6,2.4,1.6c0.2,0.3,0.3,0.7,0.4,1.1 c0.1,0.6,0.2,1.2,0.2,1.8V30c0.1,0,0.2,0,0.3,0c1.9,0,3.9,0,5.8,0c0.1,0,0.1,0,0.2,0c0,0,0.1,0,0.1,0v-0.3c0-3.8,0-7.5,0-11.3 C30,17.5,29.9,16.7,29.8,15.9z M6.7,9.8c-2.1,0-4.2,0-6.3,0c0,0,0,0-0.1,0c0,0,0,0,0,0.1c0,6.7,0,13.4,0,20c0,0,0,0,0,0.1 c2.1,0,4.2,0,6.3,0c0,0,0.1,0,0.1,0c0,0,0-0.1,0-0.1c0-6.7,0-13.3,0-20C6.8,9.8,6.8,9.8,6.7,9.8C6.8,9.8,6.7,9.8,6.7,9.8z M5.2,0.3C4.9,0.2,4.5,0.1,4.1,0C3.5,0,2.8,0,2.2,0.3c-0.9,0.3-1.6,1-1.9,1.9C0,2.7-0.1,3.3,0,4C0.2,5.4,1,6.3,2.2,6.8 c1,0.4,2,0.3,2.9-0.1C6.4,6.2,7.2,5,7.2,3.4c0-0.1,0-0.4-0.1-0.6C6.9,1.6,6.3,0.8,5.2,0.3z"/>		
	</symbol>
	<symbol id="twitter" viewBox="0 0 30 30">
		<path d="M3.1,17.8c0.8,0.1,1.6,0.1,2.3-0.1c0-0.1-0.1-0.2-0.1-0.3c-2.6-0.2-4.6-3.2-4.6-6.1C1.5,11.5,2.2,11.8,3,12 c0.1-0.2,0.1-0.1,0.2-0.4c-1.3-1.6-3.8-5.4-1.5-8.1c0.7,0.7,1.4,1.4,2,2.1c2.7,2.2,6.2,4.5,10.9,4.5c-0.3-7.4,5.6-9.9,10.6-5.9 c1.6,0,2.8-0.9,3.8-1.4c0,0.1,0,0.2,0,0.3C29,4.1,27.4,5,27.1,6c0.2,0,0.4,0,0.5,0c0.8,0,1.6-0.4,2.3-0.6c0,0.1-0.1,0.2-0.1,0.3 c-1,1-1.9,2-2.9,3.1c0.6,2.2-0.5,5.3-1.1,6.9c-2.2,5.8-6.1,10.2-12.4,11.7C9.6,28.3,1.6,27.5,0,25c3.4,0.1,7.1-0.7,8.6-2.6 c0-0.1-0.1-0.2-0.1-0.2C6,22.1,3.3,20.1,3.1,17.8z"/>		
	</symbol>
	<symbol id="checkbox" viewBox="0 0 180 180">
	    <polygon points="163,180 0,180 0,18 122,18 122,30 12,30 12,168 151,168 151,107 163,107"/>
    	<polygon points="73.1,133.7 42.7,103.3 51.5,94.5 73.1,116.2 171.3,18 180,26.7"/>
    </symbol>
	<symbol id="end" viewBox="0 0 213 125">
		<circle fill="#B9C400" cx="150.5" cy="62.5" r="61.5"/>
		<circle fill="#FFB600" cx="62.5" cy="62.5" r="61.5"/>
		<circle fill="#BE4000" cx="106.5" cy="62.5" r="61.5"/>
		<path fill="#8F5100" d="M128.5,5.1c-6.8-2.6-14.2-4.1-22-4.1c-7.8,0-15.2,1.4-22,4.1c8.4,3.2,15.9,8.2,22,14.5
			C95.7,30.6,89,45.8,89,62.5c0,16.7,6.7,31.9,17.5,42.9c-6.1,6.3-13.6,11.3-22,14.5c6.8,2.6,14.2,4.1,22,4.1c7.8,0,15.2-1.4,22-4.1
			c23.1-8.9,39.5-31.2,39.5-57.4C168,36.3,151.6,13.9,128.5,5.1z"/>
		<path fill="#8A3100" d="M106.5,105.4C117.3,94.4,124,79.2,124,62.5c0-16.7-6.7-31.9-17.5-42.9C95.7,30.6,89,45.8,89,62.5
			C89,79.2,95.7,94.4,106.5,105.4z"/>
		<path fill="#BE5A00" d="M106.5,19.6c6.1-6.3,13.6-11.3,22-14.5c-6.8-2.6-14.2-4.1-22-4.1c-7.8,0-15.2,1.4-22,4.1
			C92.9,8.3,100.4,13.3,106.5,19.6z"/>
		<path fill="#BE5A00" d="M106.5,105.4c-6.1,6.3-13.6,11.3-22,14.5c6.8,2.6,14.2,4.1,22,4.1c7.8,0,15.2-1.4,22-4.1
			C120.1,116.7,112.6,111.7,106.5,105.4z"/>
	</symbol>

	<symbol id="instagram" viewBox="0 0 30 30">
	<path d="M23.008,5.192c-0.995,0-1.801,0.806-1.801,1.8s0.806,1.8,1.801,1.8c0.993,0,1.799-0.806,1.799-1.8
				S24.001,5.192,23.008,5.192z M15.001,7.297c-4.254,0-7.703,3.449-7.703,7.703s3.449,7.704,7.703,7.704
				c4.253,0,7.702-3.45,7.702-7.704S19.254,7.297,15.001,7.297z M15.001,20C12.239,20,10,17.762,10,15s2.239-5,5.001-5
				c2.761,0,5,2.239,5,5S17.762,20,15.001,20z M29.91,8.815c-0.073-1.596-0.326-2.687-0.696-3.642
				c-0.385-0.987-0.896-1.823-1.731-2.656c-0.834-0.835-1.67-1.347-2.656-1.73c-0.954-0.371-2.045-0.625-3.642-0.698
				C19.584,0.016,19.074,0,15.001,0c-4.074,0-4.585,0.016-6.185,0.089C7.219,0.163,6.13,0.416,5.175,0.787
				C4.188,1.17,3.352,1.683,2.519,2.518c-0.835,0.833-1.347,1.669-1.73,2.656C0.417,6.128,0.164,7.219,0.091,8.815
				C0.017,10.416,0,10.926,0,15c0,4.073,0.017,4.585,0.091,6.185c0.073,1.597,0.326,2.687,0.697,3.642
				c0.384,0.987,0.896,1.823,1.73,2.656c0.833,0.834,1.669,1.347,2.656,1.73c0.955,0.371,2.044,0.625,3.642,0.698
				c1.6,0.071,2.11,0.089,6.185,0.089c4.073,0,4.583-0.018,6.184-0.089c1.597-0.073,2.688-0.327,3.642-0.698
				c0.986-0.384,1.822-0.896,2.656-1.73c0.835-0.833,1.347-1.669,1.731-2.656c0.37-0.955,0.623-2.045,0.696-3.642
				C29.982,19.585,30,19.073,30,15C30,10.926,29.982,10.416,29.91,8.815z M27.211,21.062c-0.067,1.464-0.311,2.256-0.517,2.785
				c-0.273,0.701-0.597,1.199-1.123,1.726c-0.524,0.524-1.024,0.849-1.725,1.122c-0.528,0.205-1.323,0.449-2.784,0.516
				c-1.582,0.072-2.057,0.087-6.062,0.087c-4.006,0-4.48-0.015-6.063-0.087c-1.463-0.066-2.256-0.311-2.785-0.516
				c-0.699-0.273-1.198-0.598-1.724-1.122c-0.525-0.526-0.851-1.024-1.123-1.726c-0.205-0.529-0.449-1.321-0.517-2.785
				C2.719,19.479,2.702,19.006,2.702,15s0.017-4.48,0.088-6.062c0.067-1.462,0.312-2.256,0.517-2.786
				c0.272-0.7,0.598-1.199,1.123-1.724c0.525-0.525,1.024-0.851,1.724-1.123C6.683,3.1,7.476,2.856,8.938,2.79
				c1.582-0.072,2.057-0.088,6.063-0.088c4.005,0,4.479,0.016,6.062,0.088c1.461,0.067,2.256,0.311,2.784,0.516
				c0.7,0.272,1.2,0.598,1.725,1.123c0.526,0.525,0.85,1.024,1.123,1.724c0.206,0.529,0.449,1.323,0.517,2.786
				c0.071,1.582,0.086,2.056,0.086,6.062S27.282,19.479,27.211,21.062z"/>
		</symbol>
</svg>