<?xml version="1.0" standalone="no"?>
<!DOCTYPE svg PUBLIC "-//W3C//DTD SVG 20010904//EN"
 "http://www.w3.org/TR/2001/REC-SVG-20010904/DTD/svg10.dtd">
<svg version="1.0" xmlns="http://www.w3.org/2000/svg"
 width="575.000000pt" height="575.000000pt" viewBox="0 0 575.000000 575.000000"
 preserveAspectRatio="xMidYMid meet">
<metadata>
Created by potrace 1.11, written by Peter Selinger 2001-2013
</metadata>
<g transform="translate(0.000000,575.000000) scale(0.100000,-0.100000)"
fill="#000000" stroke="none">
<path d="M537 5212 l-108 -108 407 -407 407 -407 -67 -70 c-231 -245 -410
-548 -516 -870 -30 -91 -65 -223 -74 -280 -3 -19 -8 -46 -11 -60 -3 -14 -8
-47 -11 -75 -3 -27 -9 -75 -13 -105 -8 -64 -6 -359 3 -440 45 -390 169 -736
376 -1049 l78 -116 -290 -289 -289 -290 108 -108 107 -108 29 28 c16 15 192
190 392 390 l363 363 -21 22 c-189 193 -369 494 -453 757 -30 93 -61 212 -69
265 -3 23 -8 52 -10 65 -34 159 -24 494 20 725 26 140 114 379 191 525 40 74
147 246 163 260 4 3 32 38 65 78 299 375 791 655 1261 718 28 3 59 8 70 11 39
9 351 10 425 2 582 -64 1079 -345 1425 -804 209 -276 357 -649 392 -985 9 -95
10 -343 1 -435 -44 -425 -239 -856 -530 -1167 l-35 -38 390 -390 391 -391 108
108 109 109 -290 290 -290 291 43 59 c95 132 193 313 260 484 40 99 100 299
110 364 4 21 8 41 10 45 2 3 7 26 10 51 3 25 8 56 11 70 29 149 24 508 -10
708 -4 20 -9 51 -12 67 -9 57 -45 190 -78 290 -101 306 -268 589 -497 838
l-80 88 407 406 406 407 -108 108 -109 109 -416 -416 -416 -415 -77 55 c-239
171 -579 314 -884 371 -236 44 -526 51 -766 18 -333 -45 -709 -193 -989 -388
l-80 -55 -397 397 c-218 218 -405 405 -416 414 -18 17 -23 13 -126 -90z"/>
<path d="M2705 4226 c-289 -55 -541 -247 -668 -508 -114 -235 -126 -515 -31
-754 140 -352 477 -585 849 -588 173 -1 274 20 413 85 330 154 538 479 540
843 3 426 -287 798 -708 910 -87 24 -301 30 -395 12z m313 -312 c222 -48 409
-234 466 -465 78 -317 -118 -650 -439 -744 -80 -24 -223 -28 -305 -9 -184 42
-341 165 -420 328 -54 114 -61 138 -67 251 -10 189 47 335 182 470 111 111
225 167 370 182 33 3 61 7 63 8 5 5 79 -6 150 -21z"/>
</g>
</svg>
