<svg xmlns="http://www.w3.org/2000/svg" xmlns:xlink="http://www.w3.org/1999/xlink">
	<symbol id="default" viewBox="0 0 200 50.5">
	<path d="M52.624,26.752c0-5.176-2.135-9.863-5.568-13.229l6.471-6.471l-1.733-1.733l-6.6,6.6
		c-3.098-2.327-6.946-3.708-11.112-3.708c-4.165,0-8.013,1.38-11.111,3.708l-6.6-6.6l-1.733,1.733l6.471,6.471
		c-3.433,3.366-5.568,8.053-5.568,13.229c0,4.052,1.304,7.919,3.705,11.115l-4.608,4.607l1.733,1.734l4.476-4.476l1.731-1.732
		c-0.006-0.005-0.012-0.011-0.017-0.016l-0.042-0.043c-0.557-0.575-1.065-1.186-1.523-1.825c-1.95-2.716-3.004-5.966-3.004-9.365
		c0-8.872,7.218-16.09,16.09-16.09c8.873,0,16.091,7.218,16.091,16.09c0,3.401-1.07,6.659-3.007,9.361
		c-0.477,0.665-1.002,1.295-1.581,1.886l1.735,1.735l4.474,4.475l1.733-1.734l-4.605-4.604
		C51.306,34.694,52.624,30.81,52.624,26.752z"/>
	<path d="M34.081,13.899c-4.098,0-7.432,3.334-7.432,7.432c0,4.098,3.334,7.432,7.432,7.432c4.099,0,7.433-3.334,7.433-7.432
		C41.514,17.233,38.18,13.899,34.081,13.899z M34.081,26.312c-2.746,0-4.98-2.234-4.98-4.981c0-2.746,2.234-4.981,4.98-4.981
		c2.747,0,4.981,2.235,4.981,4.981C39.063,24.078,36.828,26.312,34.081,26.312z"/>

	<path d="M77.035,31.739c-3.58-1.508-10.891-11.623-11.713-12.772l1.871-1.337c2.958,4.133,8.488,11.045,10.732,11.99L77.035,31.739
		z"/>
	<path d="M68.327,33.625l-2.178-0.727c0.825-2.484,10.283-16.504,11.359-18.095l1.904,1.289C75.419,22,68.875,31.983,68.327,33.625z
		"/>
	<path d="M81.308,30.381V16.677l1-0.129c1.045-0.135,2.885-0.075,4.834-0.009c1.644,0.056,3.508,0.118,4.266,0.01l0.326,2.276
		c-0.96,0.14-2.764,0.08-4.67,0.013c-1.189-0.042-2.491-0.084-3.454-0.067v9.205c8.042-0.404,11.136-1.053,11.167-1.057l0.487,2.246
		c-0.144,0.029-3.568,0.754-12.753,1.166L81.308,30.381z"/>
	<path d="M85.58,23.963c-0.949,0-1.807-0.01-2.219-0.037l0.163-2.297c0.904,0.065,4.678,0.021,6.059-0.001l0.035,2.298
		C89.484,23.928,87.366,23.963,85.58,23.963z"/>
	<path d="M105.983,30.239c-0.344,0-0.689-0.145-0.963-0.418c-0.484-0.482-1.396-1.912-2.971-4.395
		c-0.791-1.25-1.896-2.995-2.794-4.312c0.007,1.773,0.076,4.09,0.119,5.488c0.074,2.479,0.091,3.139,0.037,3.443l-2.269-0.379
		c-0.002,0.012-0.002,0.027-0.005,0.045c0.021-0.264-0.021-1.736-0.062-3.041c-0.191-6.266-0.161-8.071,0.149-8.774
		c0.19-0.427,0.595-0.709,1.05-0.744c1.015-0.078,1.532,0.439,5.715,7.043c0.412,0.648,0.865,1.365,1.279,2.006
		c0.016-0.898,0.016-1.92,0.012-2.791c-0.006-2.625-0.012-5.337,0.303-6.726l2.244,0.512c-0.26,1.132-0.252,3.829-0.248,6.208
		c0.016,5.072-0.027,6.285-1.111,6.738C106.312,30.208,106.149,30.239,105.983,30.239z"/>
	<path d="M116.849,30.391c-1.691,0-3.104-0.559-4.324-1.709c-2.002-1.881-3.057-8.088-1.639-9.624
		c1.717-1.86,5.418-3.012,7.861-3.012c1.281,0,2.242,0.294,2.865,0.875c1.355,1.265,2.936,6.027,2.248,9.281
		c-0.453,2.129-1.693,2.975-2.656,3.309C119.493,30.102,118.067,30.391,116.849,30.391z M112.618,20.569
		c-0.371,0.888,0.248,5.279,1.48,6.441c0.807,0.758,1.629,1.082,2.75,1.082c0.957,0,2.135-0.248,3.602-0.756
		c0.219-0.076,0.885-0.305,1.162-1.611c0.543-2.578-0.865-6.468-1.568-7.125c-0.104-0.095-0.488-0.256-1.297-0.256
		C116.64,18.344,113.747,19.399,112.618,20.569z"/>
	<path d="M139.501,30.522c-0.152-3.203-1.838-8.368-2.932-10.622c-2.188,5.323-2.855,6.315-4.047,6.186
		c-0.238-0.025-1.025-0.195-1.217-1.301c-0.225-1.311-1.396-4.226-2.262-5.694c-0.432,2.396-0.674,7.719-0.711,11.387l-2.301-0.023
		c0.023-1.848,0.168-11.183,1.209-13.379c0.346-0.733,0.979-1.112,1.691-1.014c0.719,0.097,1.65,0.628,3.076,3.811
		c0.365,0.816,0.713,1.699,0.99,2.5c0.6-1.279,1.281-2.95,1.619-3.773c0.141-0.349,0.27-0.66,0.375-0.912
		c0.359-0.865,1.096-1.064,1.617-0.973c0.52,0.09,1.592,0.28,3.395,5.613c0.791,2.352,1.68,5.705,1.793,8.086L139.501,30.522z"/>
	<path d="M155.524,27.575c0,1.672-0.115,2.277-0.428,2.688l-0.346,0.453h-9.889l-0.238-0.83c-0.629-2.184-1.279-7.446-1.227-11.454
		l2.303,0.037c-0.063,3.673,0.496,8.125,0.92,9.947h6.59c0.045-1.088-0.023-4.213-0.076-5.797c-0.064-1.966-0.135-3.996-0.102-5.63
		l2.301,0.045c-0.033,1.575,0.033,3.574,0.098,5.507C155.489,24.288,155.524,26.645,155.524,27.575z"/>
	<path d="M158.729,30.612c-0.061-0.492-0.303-3.67-0.416-6.754c-0.234-6.691,0.332-7.152,0.83-7.558
		c2.381-1.944,7.834-1.771,10.162-0.222c1.152,0.759,1.617,1.865,1.273,3.03c-0.666,2.282-2.848,5.961-9.943,5.267
		c0.104,2.654,0.285,5.25,0.375,5.949L158.729,30.612z M160.569,22.057h0.016c4.324,0.494,6.947-0.716,7.789-3.593
		c0.021-0.073,0.063-0.208-0.34-0.474c-1.639-1.09-5.725-1.078-7.287-0.022C160.575,18.582,160.538,20.187,160.569,22.057z"/>
	<rect x="162.963" y="25.694" transform="matrix(0.2153 0.9766 -0.9766 0.2153 157.0099 -141.7015)" width="7.422" height="2.298"/>
	<path d="M173.206,30.706c-0.314-1.729-0.201-12.258-0.092-13.992l0.076-1.195l1.191,0.124c0.057,0.005,5.773,0.596,8.779,0.107
		l0.371,2.27c-2.436,0.395-6.232,0.176-8.17,0.021c-0.09,3.347-0.105,11.093,0.105,12.253L173.206,30.706z"/>
	<rect x="174.206" y="21.591" width="5.607" height="2.298"/>
</symbol>
</svg>
