<svg xmlns="http://www.w3.org/2000/svg" xmlns:xlink="http://www.w3.org/1999/xlink">
	<symbol id="default" viewBox="0 0 80 71">
		<path d="M65.097,28.919c0-6.984-2.891-13.308-7.534-17.849l8.757-8.731L63.972,0L55.04,8.905
			c-4.193-3.14-9.401-5.002-15.039-5.002c-5.637,0-10.846,1.862-15.039,5.002L16.03,0l-2.347,2.339l8.758,8.731
			c-4.645,4.542-7.535,10.865-7.535,17.849c0,5.466,1.764,10.684,5.015,14.997l-6.237,6.217l2.347,2.341l6.056-6.04l2.344-2.337
			c-0.007-0.007-0.015-0.015-0.023-0.021l-0.057-0.058c-0.753-0.775-1.442-1.599-2.061-2.463c-2.641-3.664-4.065-8.049-4.065-12.635
			c0-11.972,9.767-21.71,21.776-21.71c12.01,0,21.776,9.739,21.776,21.71c0,4.589-1.448,8.985-4.069,12.63
			c-0.645,0.898-1.355,1.747-2.14,2.544l2.349,2.341l6.055,6.039l2.348-2.341l-6.233-6.213
			C63.313,39.634,65.097,34.394,65.097,28.919z"/>
		<path d="M40.001,11.576c-5.545,0-10.06,4.499-10.06,10.027c0,5.53,4.514,10.029,10.06,10.029c5.546,0,10.06-4.499,10.06-10.029
			C50.061,16.075,45.547,11.576,40.001,11.576z M40.001,28.325c-3.716,0-6.741-3.015-6.741-6.721c0-3.705,3.024-6.72,6.741-6.72
			c3.717,0,6.741,3.015,6.741,6.72C46.742,25.31,43.718,28.325,40.001,28.325z"/>
		<path d="M7.928,69.729C5.505,68.711,0.557,61.885,0,61.11l1.268-0.902c2.001,2.789,5.744,7.451,7.263,8.09L7.928,69.729z"/>
		<path d="M2.035,71l-1.474-0.489c0.559-1.676,6.958-11.137,7.687-12.21l1.289,0.871C6.833,63.158,2.406,69.892,2.035,71z"/>
		<path d="M10.818,68.811v-9.244l0.678-0.087c0.706-0.093,1.951-0.053,3.27-0.007c1.113,0.04,2.375,0.08,2.888,0.007l0.221,1.533
			c-0.65,0.096-1.87,0.057-3.16,0.011c-0.806-0.028-1.686-0.058-2.338-0.044v6.208c5.443-0.271,7.537-0.708,7.558-0.715l0.329,1.519
			c-0.096,0.019-2.415,0.509-8.63,0.785L10.818,68.811z"/>
		<path d="M13.71,64.481c-0.642,0-1.223-0.005-1.501-0.026l0.111-1.547c0.611,0.042,3.166,0.014,4.1-0.002l0.024,1.552
			C16.353,64.458,14.92,64.481,13.71,64.481z"/>
		<path d="M27.519,68.717c-0.233,0-0.467-0.098-0.652-0.283c-0.328-0.327-0.945-1.291-2.01-2.964
			c-0.535-0.847-1.283-2.021-1.891-2.91c0.004,1.196,0.052,2.76,0.081,3.703c0.05,1.671,0.062,2.115,0.025,2.322l-1.534-0.256
			c-0.002,0.008-0.002,0.018-0.004,0.03c0.014-0.178-0.015-1.172-0.041-2.051c-0.129-4.229-0.108-5.445,0.101-5.92
			c0.129-0.287,0.403-0.48,0.711-0.504c0.686-0.049,1.036,0.298,3.867,4.752c0.279,0.44,0.586,0.922,0.866,1.354
			c0.011-0.605,0.011-1.294,0.008-1.883c-0.003-1.77-0.008-3.602,0.206-4.537l1.52,0.346c-0.177,0.765-0.172,2.583-0.169,4.188
			c0.01,3.423-0.019,4.239-0.753,4.545C27.741,68.694,27.631,68.717,27.519,68.717z"/>
		<path d="M34.873,68.82c-1.145,0-2.1-0.378-2.926-1.155c-1.355-1.269-2.069-5.455-1.109-6.494c1.162-1.254,3.667-2.031,5.32-2.031
			c0.867,0,1.517,0.2,1.939,0.592c0.917,0.852,1.987,4.064,1.521,6.26c-0.307,1.437-1.146,2.01-1.797,2.232
			C36.662,68.625,35.697,68.82,34.873,68.82z M32.01,62.19c-0.251,0.599,0.167,3.564,1.001,4.346c0.546,0.512,1.103,0.73,1.861,0.73
			c0.647,0,1.444-0.166,2.437-0.508c0.148-0.053,0.599-0.207,0.787-1.09c0.367-1.738-0.586-4.363-1.062-4.806
			c-0.069-0.063-0.33-0.171-0.877-0.171C34.731,60.692,32.774,61.403,32.01,62.19z"/>
		<path d="M50.203,68.905c-0.103-2.16-1.243-5.644-1.983-7.166c-1.479,3.594-1.935,4.263-2.74,4.172
			c-0.16-0.015-0.693-0.13-0.823-0.874c-0.152-0.885-0.944-2.853-1.53-3.843c-0.292,1.617-0.455,5.208-0.481,7.683l-1.557-0.016
			c0.016-1.247,0.113-7.545,0.818-9.025c0.233-0.496,0.662-0.751,1.145-0.686c0.485,0.065,1.116,0.425,2.08,2.572
			c0.248,0.551,0.483,1.146,0.672,1.687c0.405-0.864,0.867-1.99,1.096-2.546c0.096-0.234,0.184-0.446,0.254-0.614
			c0.244-0.585,0.742-0.719,1.095-0.656c0.352,0.061,1.078,0.187,2.297,3.786c0.537,1.587,1.138,3.848,1.215,5.456L50.203,68.905z"
			/>
		<path d="M61.047,66.916c0,1.13-0.077,1.54-0.289,1.815l-0.233,0.305h-6.692l-0.161-0.561c-0.426-1.473-0.866-5.021-0.83-7.726
			l1.558,0.024c-0.042,2.479,0.336,5.48,0.623,6.711h4.46c0.029-0.733-0.018-2.845-0.052-3.91c-0.044-1.329-0.092-2.697-0.07-3.801
			l1.559,0.032c-0.023,1.061,0.022,2.411,0.065,3.716C61.023,64.7,61.047,66.291,61.047,66.916z"/>
		<path d="M63.216,68.966c-0.041-0.332-0.205-2.474-0.281-4.555c-0.159-4.516,0.226-4.827,0.563-5.101
			c1.611-1.312,5.302-1.193,6.878-0.149c0.779,0.513,1.094,1.26,0.861,2.044c-0.452,1.539-1.927,4.021-6.73,3.556
			c0.069,1.789,0.193,3.542,0.254,4.014L63.216,68.966z M64.461,63.195h0.011c2.928,0.335,4.703-0.482,5.273-2.423
			c0.014-0.049,0.041-0.142-0.231-0.32c-1.108-0.735-3.873-0.729-4.932-0.016C64.465,60.85,64.44,61.934,64.461,63.195z"/>
		<rect x="66.09" y="65.647" transform="matrix(0.2161 0.9764 -0.9764 0.2161 118.6289 -14.9015)" width="5.008" height="1.555"/>
		<path d="M73.014,69.029c-0.213-1.165-0.136-8.269-0.062-9.439l0.052-0.806l0.806,0.084c0.038,0.004,3.906,0.4,5.94,0.071
			L80,60.472c-1.647,0.266-4.217,0.117-5.526,0.014c-0.061,2.257-0.072,7.485,0.071,8.268L73.014,69.029z"/>
		<rect x="73.69" y="62.882" width="3.793" height="1.549"/>
</symbol>
</svg>
